<?xml version="1.0" encoding="UTF-8"?>
<svg version="1.1" xmlns="http://www.w3.org/2000/svg" width="42" height="55">
<path d="M0 0 C2.04139438 0.00316307 4.08134303 -0.02031744 6.12255859 -0.0456543 C8.05035156 -0.04662109 8.05035156 -0.04662109 10.01708984 -0.04760742 C11.19722656 -0.05058838 12.37736328 -0.05356934 13.59326172 -0.05664062 C16.54833984 0.31567383 16.54833984 0.31567383 18.43383789 1.66040039 C20.13993156 4.19431388 19.90841245 6.36646196 19.86083984 9.37817383 C19.85697266 10.44165039 19.85310547 11.50512695 19.84912109 12.60083008 C19.54833984 15.31567383 19.54833984 15.31567383 17.54833984 17.31567383 C14.50732422 17.57446289 14.50732422 17.57446289 10.64208984 17.58129883 C9.62133362 17.58416901 9.62133362 17.58416901 8.57995605 17.58709717 C7.14086538 17.58845846 5.70176241 17.58476588 4.26269531 17.57641602 C2.05684897 17.56571511 -0.14818297 17.57631255 -2.35400391 17.58911133 C-3.75114112 17.58778972 -5.14827784 17.58522731 -6.54541016 17.58129883 C-7.8209375 17.57904297 -9.09646484 17.57678711 -10.41064453 17.57446289 C-13.45166016 17.31567383 -13.45166016 17.31567383 -15.45166016 15.31567383 C-15.75244141 12.34692383 -15.75244141 12.34692383 -15.76416016 8.81567383 C-15.78091797 7.65036133 -15.79767578 6.48504883 -15.81494141 5.28442383 C-15.69505859 4.30473633 -15.57517578 3.32504883 -15.45166016 2.31567383 C-10.70257787 -0.85038103 -5.58680419 -0.01817832 0 0 Z " fill="#379FBD" transform="translate(18.45166015625,1.684326171875)"/>
<path d="M0 0 C0.85464844 -0.02835938 1.70929687 -0.05671875 2.58984375 -0.0859375 C5.93555627 0.53774983 6.95852155 1.72782951 9.0625 4.375 C9.54833984 7.26000977 9.54833984 7.26000977 9.5234375 10.56640625 C9.51957031 11.75814453 9.51570313 12.94988281 9.51171875 14.17773438 C9.48722656 15.41845703 9.46273438 16.65917969 9.4375 17.9375 C9.43621094 19.18208984 9.43492188 20.42667969 9.43359375 21.70898438 C9.34350103 30.95349845 9.34350103 30.95349845 7.0625 34.375 C4.09375 34.73828125 4.09375 34.73828125 0.5625 34.6875 C-1.18546875 34.68169922 -1.18546875 34.68169922 -2.96875 34.67578125 C-5.9375 34.375 -5.9375 34.375 -7.9375 32.375 C-8.33570611 28.09915127 -8.26654395 23.80890651 -8.25317383 19.51660156 C-8.25001177 17.38294515 -8.27347638 15.25067256 -8.29882812 13.1171875 C-8.30110088 11.76562675 -8.30180472 10.41406227 -8.30078125 9.0625 C-8.30376221 7.82886719 -8.30674316 6.59523438 -8.30981445 5.32421875 C-8.1255188 3.86435547 -8.1255188 3.86435547 -7.9375 2.375 C-4.7524857 0.25165713 -3.69293693 0.05553289 0 0 Z " fill="#3D89B5" transform="translate(10.9375,19.625)"/>
<path d="M0 0 C1.28197266 -0.01160156 1.28197266 -0.01160156 2.58984375 -0.0234375 C5.63455755 0.46717989 6.964941 1.10503889 9.0625 3.375 C9.55859375 6.1875 9.55859375 6.1875 9.5 9.375 C9.49871094 10.426875 9.49742188 11.47875 9.49609375 12.5625 C9.0625 15.375 9.0625 15.375 7.87890625 17.2265625 C5.36873369 18.81363935 3.51455599 18.7738069 0.5625 18.75 C-0.3965625 18.75773437 -1.355625 18.76546875 -2.34375 18.7734375 C-4.9375 18.375 -4.9375 18.375 -6.7578125 17.2265625 C-8.44859818 14.5728128 -8.33545794 12.49728019 -8.3125 9.375 C-8.32023437 8.323125 -8.32796875 7.27125 -8.3359375 6.1875 C-7.9375 3.375 -7.9375 3.375 -6.72265625 1.5234375 C-4.37145439 0.01084812 -2.78284454 -0.02510837 0 0 Z " fill="#4D7F92" transform="translate(28.9375,19.625)"/>
</svg>
